<?xml version="1.0" encoding="UTF-8"?>
<svg width="75px" height="75px" viewBox="0 0 75 75" version="1.1" xmlns="http://www.w3.org/2000/svg" xmlns:xlink="http://www.w3.org/1999/xlink">
    <!-- Generator: Sketch 52.6 (67491) - http://www.bohemiancoding.com/sketch -->
    <title>icon-facebook</title>
    <desc>Created with Sketch.</desc>
    <g id="Welcome" stroke="none" stroke-width="1" fill="none" fill-rule="evenodd">
        <g id="Tablet-Portrait" transform="translate(-81.000000, -294.000000)" fill="#9B9B9B">
            <g id="icon-facebook" transform="translate(81.000000, 294.000000)">
                <path d="M66.9642857,-5.91590269e-15 L8.03571429,-5.91590269e-15 C3.59771183,-7.10542736e-15 5.4349855e-16,3.59771183 0,8.03571429 L0,66.9642857 C5.4349855e-16,71.4022882 3.59771183,75 8.03571429,75 L31.0128348,75 L31.0128348,49.5016741 L20.4659598,49.5016741 L20.4659598,37.5 L31.0128348,37.5 L31.0128348,28.3526786 C31.0128348,17.9481027 37.2070312,12.2008929 46.6941964,12.2008929 C51.2377232,12.2008929 55.9888393,13.0111607 55.9888393,13.0111607 L55.9888393,23.2232143 L50.7539062,23.2232143 C45.5959821,23.2232143 43.9871652,26.4241071 43.9871652,29.7070312 L43.9871652,37.5 L55.5016741,37.5 L53.6601562,49.5016741 L43.9871652,49.5016741 L43.9871652,75 L66.9642857,75 C71.4022882,75 75,71.4022882 75,66.9642857 L75,8.03571429 C75,3.59771183 71.4022882,-7.10542736e-15 66.9642857,-7.10542736e-15 Z" id="Path"></path>
            </g>
        </g>
    </g>
</svg>