<?xml version="1.0" encoding="UTF-8"?>
<svg width="48px" height="48px" viewBox="0 0 48 48" version="1.1" xmlns="http://www.w3.org/2000/svg" xmlns:xlink="http://www.w3.org/1999/xlink">
    <!-- Generator: Sketch 52.6 (67491) - http://www.bohemiancoding.com/sketch -->
    <title>icon-bars</title>
    <desc>Created with Sketch.</desc>
    <g id="Welcome" stroke="none" stroke-width="1" fill="none" fill-rule="evenodd">
        <g id="Desktop-HD" transform="translate(-696.000000, -1567.000000)" fill-rule="nonzero">
            <g id="icon-bars" transform="translate(696.000000, 1567.000000)">
                <g id="bars" transform="translate(15.000000, 14.000000)" fill="#F1F1F1">
                    <path d="M0.642857143,3.67346939 L17.3571429,3.67346939 C17.7122009,3.67346939 18,3.3080102 18,2.85714286 L18,0.816326531 C18,0.365459184 17.7122009,0 17.3571429,0 L0.642857143,0 C0.287799107,0 0,0.365459184 0,0.816326531 L0,2.85714286 C0,3.3080102 0.287799107,3.67346939 0.642857143,3.67346939 Z M0.642857143,11.8367347 L17.3571429,11.8367347 C17.7122009,11.8367347 18,11.4712755 18,11.0204082 L18,8.97959184 C18,8.52872449 17.7122009,8.16326531 17.3571429,8.16326531 L0.642857143,8.16326531 C0.287799107,8.16326531 0,8.52872449 0,8.97959184 L0,11.0204082 C0,11.4712755 0.287799107,11.8367347 0.642857143,11.8367347 Z M0.642857143,20 L17.3571429,20 C17.7122009,20 18,19.6345408 18,19.1836735 L18,17.1428571 C18,16.6919898 17.7122009,16.3265306 17.3571429,16.3265306 L0.642857143,16.3265306 C0.287799107,16.3265306 0,16.6919898 0,17.1428571 L0,19.1836735 C0,19.6345408 0.287799107,20 0.642857143,20 Z" id="Shape"></path>
                </g>
                <rect id="Rectangle" stroke="#F1F1F1" x="0.5" y="0.5" width="47" height="47" rx="10"></rect>
            </g>
        </g>
    </g>
</svg>