<?xml version="1.0" encoding="UTF-8"?>
<svg width="76px" height="75px" viewBox="0 0 76 75" version="1.1" xmlns="http://www.w3.org/2000/svg" xmlns:xlink="http://www.w3.org/1999/xlink">
    <!-- Generator: Sketch 52.6 (67491) - http://www.bohemiancoding.com/sketch -->
    <title>icon-instagram</title>
    <desc>Created with Sketch.</desc>
    <g id="Welcome" stroke="none" stroke-width="1" fill="none" fill-rule="evenodd">
        <g id="Tablet-Portrait" transform="translate(-216.000000, -294.000000)" fill="#9B9B9B" fill-rule="nonzero">
            <g id="icon-instagram" transform="translate(216.000000, 294.000000)">
                <path d="M37.6002227,18.3741648 C26.9766147,18.3741648 18.4075724,26.9432071 18.4075724,37.5668151 C18.4075724,48.1904232 26.9766147,56.7594655 37.6002227,56.7594655 C48.2238307,56.7594655 56.7928731,48.1904232 56.7928731,37.5668151 C56.7928731,26.9432071 48.2238307,18.3741648 37.6002227,18.3741648 Z M37.6002227,50.0445434 C30.7349666,50.0445434 25.1224944,44.4487751 25.1224944,37.5668151 C25.1224944,30.6848552 30.7182628,25.0890869 37.6002227,25.0890869 C44.4821826,25.0890869 50.077951,30.6848552 50.077951,37.5668151 C50.077951,44.4487751 44.4654788,50.0445434 37.6002227,50.0445434 Z M62.0545657,17.5890869 C62.0545657,20.077951 60.0501114,22.0657016 57.577951,22.0657016 C55.0890869,22.0657016 53.1013363,20.0612472 53.1013363,17.5890869 C53.1013363,15.1169265 55.1057906,13.1124722 57.577951,13.1124722 C60.0501114,13.1124722 62.0545657,15.1169265 62.0545657,17.5890869 Z M74.766147,22.1325167 C74.4821826,16.1358575 73.1124722,10.8240535 68.7193764,6.44766147 C64.3429844,2.07126949 59.0311804,0.70155902 53.0345212,0.400890869 C46.8541203,0.0501113586 28.3296214,0.0501113586 22.1492205,0.400890869 C16.169265,0.684855234 10.857461,2.0545657 6.46436526,6.43095768 C2.07126949,10.8073497 0.718262806,16.1191537 0.417594655,22.1158129 C0.0668151448,28.2962138 0.0668151448,46.8207127 0.417594655,53.0011136 C0.70155902,58.9977728 2.07126949,64.3095768 6.46436526,68.6859688 C10.857461,73.0623608 16.1525612,74.4320713 22.1492205,74.7327394 C28.3296214,75.0835189 46.8541203,75.0835189 53.0345212,74.7327394 C59.0311804,74.4487751 64.3429844,73.0790646 68.7193764,68.6859688 C73.0957684,64.3095768 74.4654788,58.9977728 74.766147,53.0011136 C75.1169265,46.8207127 75.1169265,28.3129176 74.766147,22.1325167 Z M66.7817372,59.6325167 C65.4788419,62.9064588 62.9565702,65.4287305 59.6659243,66.7483296 C54.7383073,68.7026726 43.045657,68.2516704 37.6002227,68.2516704 C32.1547884,68.2516704 20.4454343,68.6859688 15.5345212,66.7483296 C12.2605791,65.4454343 9.73830735,62.9231626 8.41870824,59.6325167 C6.46436526,54.7048998 6.91536748,43.0122494 6.91536748,37.5668151 C6.91536748,32.1213808 6.48106904,20.4120267 8.41870824,15.5011136 C9.72160356,12.2271715 12.2438753,9.70489978 15.5345212,8.38530067 C20.4621381,6.43095768 32.1547884,6.88195991 37.6002227,6.88195991 C43.045657,6.88195991 54.7550111,6.44766147 59.6659243,8.38530067 C62.9398664,9.68819599 65.4621381,12.2104677 66.7817372,15.5011136 C68.7360802,20.4287305 68.285078,32.1213808 68.285078,37.5668151 C68.285078,43.0122494 68.7360802,54.7216036 66.7817372,59.6325167 Z" id="Shape"></path>
            </g>
        </g>
    </g>
</svg>