<?xml version="1.0" encoding="UTF-8"?>
<svg width="57px" height="77px" viewBox="0 0 57 77" version="1.1" xmlns="http://www.w3.org/2000/svg" xmlns:xlink="http://www.w3.org/1999/xlink">
    <!-- Generator: Sketch 52.6 (67491) - http://www.bohemiancoding.com/sketch -->
    <title>Rectangle</title>
    <desc>Created with Sketch.</desc>
    <g id="Welcome" stroke="none" stroke-width="1" fill="none" fill-rule="evenodd">
        <g id="Desktop" transform="translate(-423.000000, -328.000000)" fill-rule="nonzero" stroke="#9B9B9B" stroke-width="2">
            <path d="M425.696584,331.975466 C426.59041,329.532216 427.670092,329 430.083143,329 C436.033603,329.30532 437.090682,329.30532 443.644282,329.64157 C445.740119,330.271262 445.4606,330.931217 446.030852,332.548468 C447.017906,336.160906 447.022354,340.394673 448.210644,347.525019 C448.210644,349.431645 448.368082,349.749733 446.68759,350.536242 C442.247009,352.642023 442.943197,352.250199 437.151156,354.724352 C440.553748,366.890814 442.408713,371.550836 453.131255,382.341954 C458.314139,378.731264 458.559255,378.786647 461.374439,376.620358 C463.097479,375.294477 464.148629,375.894948 465.048805,376.620358 C471.181021,381.173436 472.930219,382.603577 478.26248,387.093448 C479.288947,388.293849 479.201767,389.08367 478.26248,390.68295 C475.069438,396.151634 474.370812,397.62893 471.728984,402.415706 C470.741503,404.20494 469.224218,404.304045 467.501176,403.57317 C433.564387,393.265682 418.683752,361.583884 425.696584,331.975466 Z" id="Rectangle"></path>
        </g>
    </g>
</svg>