<?xml version="1.0" encoding="UTF-8"?>
<svg width="57px" height="77px" viewBox="0 0 57 77" version="1.1" xmlns="http://www.w3.org/2000/svg" xmlns:xlink="http://www.w3.org/1999/xlink">
    <!-- Generator: Sketch 52.6 (67491) - http://www.bohemiancoding.com/sketch -->
    <title>Rectangle</title>
    <desc>Created with Sketch.</desc>
    <g id="Welcome" stroke="none" stroke-width="1" fill="none" fill-rule="evenodd">
        <g id="Desktop" transform="translate(-177.000000, -328.000000)" fill-rule="nonzero" stroke="#E58C0F" stroke-width="2">
            <path d="M179.696584,331.975466 C180.59041,329.532216 181.670092,329 184.083143,329 C190.033603,329.30532 191.090682,329.30532 197.644282,329.64157 C199.740119,330.271262 199.4606,330.931217 200.030852,332.548468 C201.017906,336.160906 201.022354,340.394673 202.210644,347.525019 C202.210644,349.431645 202.368082,349.749733 200.68759,350.536242 C196.247009,352.642023 196.943197,352.250199 191.151156,354.724352 C194.553748,366.890814 196.408713,371.550836 207.131255,382.341954 C212.314139,378.731264 212.559255,378.786647 215.374439,376.620358 C217.097479,375.294477 218.148629,375.894948 219.048805,376.620358 C225.181021,381.173436 226.930219,382.603577 232.26248,387.093448 C233.288947,388.293849 233.201767,389.08367 232.26248,390.68295 C229.069438,396.151634 228.370812,397.62893 225.728984,402.415706 C224.741503,404.20494 223.224218,404.304045 221.501176,403.57317 C187.564387,393.265682 172.683752,361.583884 179.696584,331.975466 Z" id="Rectangle"></path>
        </g>
    </g>
</svg>